<svg width="923" height="369" viewBox="0 0 923 369" fill="none" xmlns="http://www.w3.org/2000/svg">
<path d="M290.524 220.861C290.818 227.18 289.727 233.487 287.329 239.336C284.93 245.186 281.283 250.436 276.644 254.716C266.215 263.645 252.785 268.241 239.097 267.564H195.218V325.959H175.389V175.763H238.266C252.221 174.89 266.024 179.085 277.156 187.584C281.81 191.724 285.47 196.868 287.863 202.631C290.256 208.394 291.319 214.626 290.972 220.861H290.524ZM270.184 220.861C270.184 201.503 258.585 191.824 235.387 191.824H195.218V250.99H236.283C258.883 250.99 270.184 240.947 270.184 220.861Z" fill="#CC2B24"/>
<path d="M323.85 325.637V175.763H437.194V192.659H344.062V240.711H430.797V256.9H344.062V309.128H441.543V325.702H323.85V325.637Z" fill="#CC2B24"/>
<path d="M580.985 308.292H599.534V368.679H580.345V325.637H477.171V369H457.982V308.292H473.269C479.684 299.613 484.434 289.81 487.277 279.384C491.935 263.14 495.209 246.527 497.064 229.726L504.164 175.506H580.921V308.292H580.985ZM561.284 308.292V192.659H521.498L516.317 231.781C514.339 247.784 511.434 263.657 507.618 279.32C505.26 289.557 501.402 299.386 496.168 308.485H561.284V308.292Z" fill="#CC2B24"/>
<path d="M148.78 0H0V149.424H148.78V0Z" fill="#CC2B24"/>
<path d="M148.78 175.763H0V325.188H148.78V175.763Z" fill="#CC2B24"/>
<path d="M323.913 0H175.133V149.424H323.913V0Z" fill="#CC2B24"/>
<path d="M859.804 191.952C852.756 191.561 845.71 192.766 839.189 195.48C832.667 198.193 826.837 202.344 822.129 207.627C812.545 219.761 807.741 235.013 808.633 250.475C807.864 266.134 812.824 281.533 822.577 293.774C827.287 299.18 833.147 303.453 839.724 306.277C846.301 309.102 853.425 310.405 860.571 310.091C880.997 310.091 896.348 299.962 906.625 279.705L922.744 287.799C917.285 299.754 908.37 309.782 897.159 316.579C885.824 323.183 872.904 326.538 859.804 326.28C846.438 326.648 833.209 323.503 821.425 317.158C810.815 311.072 802.277 301.916 796.927 290.883C791.076 278.218 788.209 264.369 788.548 250.411C788.548 227.07 794.838 208.804 807.417 195.614C819.997 182.423 837.374 175.806 859.548 175.763C873.088 175.283 886.511 178.431 898.438 184.885C908.921 191.058 917.015 200.613 921.401 211.995L902.659 218.419C899.519 210.325 893.749 203.534 886.285 199.147C878.285 194.348 869.122 191.859 859.804 191.952Z" fill="black"/>
<path d="M769.486 250.475C769.784 264.375 766.757 278.144 760.659 290.626C755.161 301.794 746.418 311.023 735.585 317.093C723.803 323.453 710.581 326.64 697.207 326.344C683.7 326.705 670.327 323.563 658.381 317.222C647.617 311.203 638.954 302.009 633.563 290.883C627.623 278.264 624.688 264.43 624.992 250.475C624.992 227.092 631.388 208.826 644.181 195.678C656.974 182.53 674.734 175.913 697.463 175.827C710.798 175.529 723.995 178.599 735.841 184.757C746.621 190.501 755.343 199.486 760.787 210.453C766.844 222.876 769.828 236.583 769.486 250.411V250.475ZM749.274 250.475C750.154 234.983 745.276 219.714 735.585 207.627C730.735 202.341 724.776 198.204 718.138 195.516C711.501 192.827 704.351 191.654 697.207 192.08C690.032 191.644 682.848 192.793 676.162 195.445C669.476 198.098 663.45 202.19 658.509 207.434C648.741 219.579 643.858 234.958 644.821 250.54C643.981 266.294 648.868 281.818 658.573 294.224C668.791 304.435 682.592 310.209 697.007 310.305C711.421 310.401 725.297 304.811 735.649 294.737C745.384 282.158 750.207 266.44 749.21 250.54L749.274 250.475Z" fill="black"/>
</svg>